<svg width="1436" height="1024" viewBox="0 0 1436 1024" fill="none" xmlns="http://www.w3.org/2000/svg">
<g opacity="0.6">
<path opacity="0.5" d="M156.048 529.301C133.781 672.173 -542.818 929.408 -622.351 1005.16C-701.884 1080.9 -173.623 1381.07 -30.3099 1477C113.003 1572.93 566.987 931.625 713.273 858.727C850.569 768.87 1105.4 579.865 1250.1 283.47C1394.8 -12.9252 1303.22 -161.221 1103.15 -175.19C932.231 -204.345 451.876 -142.698 225.144 46.032C-43.718 269.831 183.882 350.711 156.048 529.301Z" fill="url(#paint0_linear_72_272)" fill-opacity="0.6" stroke="white"/>
<path opacity="0.7" d="M249.033 573.783C226.766 716.656 -449.833 973.89 -529.365 1049.64C-608.898 1125.39 -80.6379 1425.56 62.6752 1521.49C205.988 1617.41 659.972 976.108 806.259 903.209C943.554 813.352 1198.39 624.347 1343.08 327.952C1487.78 31.5571 1396.21 -116.739 1196.13 -130.708C1025.22 -159.863 544.861 -98.216 318.129 90.5143C49.2672 314.314 276.867 395.193 249.033 573.783Z" fill="url(#paint1_linear_72_272)" fill-opacity="0.6" stroke="#FF688C"/>
<path opacity="0.8" d="M372.529 631.792C350.261 774.664 -326.337 1031.9 -405.87 1107.65C-485.403 1183.4 42.8575 1483.56 186.171 1579.49C329.484 1675.42 783.468 1034.12 929.754 961.218C1067.05 871.361 1321.88 682.356 1466.58 385.961C1611.28 89.5657 1519.7 -58.7303 1319.63 -72.6995C1148.71 -101.854 668.357 -40.2074 441.625 148.523C172.763 372.322 400.363 453.201 372.529 631.792Z" fill="url(#paint2_linear_72_272)" fill-opacity="0.6" stroke="#3DF3BD"/>
<path d="M487.561 678.083C465.35 820.945 -211.167 1077.96 -290.672 1153.68C-370.177 1229.41 158.218 1529.73 301.573 1625.71C444.929 1721.68 898.672 1080.53 1044.93 1007.68C1182.2 917.864 1436.96 728.944 1581.55 432.6C1726.13 136.256 1634.49 -12.0652 1434.41 -26.097C1263.48 -55.3048 783.131 6.18998 556.467 194.845C287.686 418.556 515.325 499.505 487.561 678.083Z" fill="url(#paint3_linear_72_272)" fill-opacity="0.6" stroke="#FFB67B"/>
</g>
<defs>
<linearGradient id="paint0_linear_72_272" x1="337.818" y1="1313.41" x2="496.68" y2="-111.916" gradientUnits="userSpaceOnUse">
<stop stop-color="#405D8E"/>
<stop offset="1" stop-color="#D9D9D9" stop-opacity="0"/>
</linearGradient>
<linearGradient id="paint1_linear_72_272" x1="430.803" y1="1357.89" x2="589.665" y2="-67.434" gradientUnits="userSpaceOnUse">
<stop stop-color="#405D8E"/>
<stop offset="1" stop-color="#D9D9D9" stop-opacity="0"/>
</linearGradient>
<linearGradient id="paint2_linear_72_272" x1="554.298" y1="1415.9" x2="713.161" y2="-9.42549" gradientUnits="userSpaceOnUse">
<stop stop-color="#405D8E"/>
<stop offset="1" stop-color="#D9D9D9" stop-opacity="0"/>
</linearGradient>
<linearGradient id="paint3_linear_72_272" x1="669.647" y1="1462.23" x2="828.921" y2="37.0941" gradientUnits="userSpaceOnUse">
<stop stop-color="#405D8E"/>
<stop offset="1" stop-color="#D9D9D9" stop-opacity="0"/>
</linearGradient>
</defs>
</svg>
