<svg width="410" height="341" viewBox="0 0 410 341" fill="none" xmlns="http://www.w3.org/2000/svg">
<g filter="url(#filter0_d_0_1)">
<path d="M65.7789 199.301L7.32904 164.378L7.47298 101.146L70.9038 68.5322L130.263 101.426L130.119 164.658L65.7789 199.301Z" fill="url(#paint0_linear_0_1)" shape-rendering="crispEdges"/>
<path d="M7.47298 101.146L65.9257 134.8M7.47298 101.146L7.32904 164.378L65.7789 199.301M7.47298 101.146L70.9038 68.5322L130.263 101.426M65.9257 134.8L65.7789 199.301M65.9257 134.8L130.263 101.426M65.7789 199.301L130.119 164.658L130.263 101.426" stroke="#F7B37C" stroke-width="4" shape-rendering="crispEdges"/>
</g>
<g filter="url(#filter1_d_0_1)">
<path d="M130.456 235.613L72.006 200.69L72.15 137.458L135.581 104.844L194.94 137.738L194.796 200.969L130.456 235.613Z" fill="url(#paint1_linear_0_1)" shape-rendering="crispEdges"/>
<path d="M72.15 137.458L130.603 171.112M72.15 137.458L72.006 200.69L130.456 235.613M72.15 137.458L135.581 104.844L194.94 137.738M130.603 171.112L130.456 235.613M130.603 171.112L194.94 137.738M130.456 235.613L194.796 200.969L194.94 137.738" stroke="#ABEFD6" stroke-width="4" shape-rendering="crispEdges"/>
</g>
<g filter="url(#filter2_d_0_1)">
<path d="M195.974 271.927L137.524 237.004L137.668 173.772L201.099 141.158L260.458 174.051L260.314 237.283L195.974 271.927Z" fill="url(#paint2_linear_0_1)" shape-rendering="crispEdges"/>
<path d="M137.668 173.772L196.121 207.426M137.668 173.772L137.524 237.004L195.974 271.927M137.668 173.772L201.099 141.158L260.458 174.051M196.121 207.426L195.974 271.927M196.121 207.426L260.458 174.051M195.974 271.927L260.314 237.283L260.458 174.051" stroke="#FF688C" stroke-width="4" shape-rendering="crispEdges"/>
</g>
<g filter="url(#filter3_d_0_1)">
<path d="M260.648 309.5L202.198 274.577L202.342 211.345L265.773 178.731L325.132 211.624L324.988 274.856L260.648 309.5Z" fill="url(#paint3_linear_0_1)" shape-rendering="crispEdges"/>
<path d="M202.342 211.345L260.795 244.999M202.342 211.345L202.198 274.577L260.648 309.5M202.342 211.345L265.773 178.731L325.132 211.624M260.795 244.999L260.648 309.5M260.795 244.999L325.132 211.624M260.648 309.5L324.988 274.856L325.132 211.624" stroke="#FBFBFB" stroke-width="4" shape-rendering="crispEdges"/>
</g>
<circle cx="385.844" cy="288.705" r="6.17321" transform="rotate(-36.2912 385.844 288.705)" fill="url(#paint4_linear_0_1)" stroke="#FF688C"/>
<circle cx="171.834" cy="42.1372" r="6.17321" transform="rotate(-36.2912 171.834 42.1372)" fill="url(#paint5_linear_0_1)" stroke="#F7B37C"/>
<circle cx="281.556" cy="273.287" r="6.17321" transform="rotate(-36.2912 281.556 273.287)" fill="url(#paint6_linear_0_1)" stroke="#F7B37C"/>
<circle cx="5.93047" cy="74.3569" r="3.74239" transform="rotate(-36.2912 5.93047 74.3569)" fill="url(#paint7_linear_0_1)" stroke="white"/>
<circle cx="325.037" cy="178.818" r="3.74239" transform="rotate(-36.2912 325.037 178.818)" fill="url(#paint8_linear_0_1)" stroke="white"/>
<circle cx="56.0177" cy="255.784" r="3.74239" transform="rotate(-36.2912 56.0177 255.784)" fill="url(#paint9_linear_0_1)" stroke="white"/>
<circle cx="147.885" cy="333.885" r="4.42549" transform="rotate(-36.2912 147.885 333.885)" fill="url(#paint10_linear_0_1)" stroke="white"/>
<circle cx="198.208" cy="185.556" r="6.17321" transform="rotate(-36.2912 198.208 185.556)" fill="url(#paint11_linear_0_1)" stroke="white"/>
<circle cx="329.921" cy="199.536" r="4.74175" transform="rotate(-36.2912 329.921 199.536)" fill="url(#paint12_linear_0_1)" stroke="#FF688C"/>
<circle cx="382.757" cy="6.24145" r="3.96482" transform="rotate(-36.2912 382.757 6.24145)" fill="url(#paint13_linear_0_1)" stroke="#FF688C"/>
<circle cx="324.329" cy="327.329" r="6.17321" transform="rotate(-36.2912 324.329 327.329)" fill="url(#paint14_linear_0_1)" stroke="white"/>
<circle cx="94.5456" cy="237.361" r="6.17321" transform="rotate(-36.2912 94.5456 237.361)" fill="url(#paint15_linear_0_1)" stroke="white"/>
<circle cx="389.329" cy="86.3286" r="6.17321" transform="rotate(-36.2912 389.329 86.3286)" fill="url(#paint16_linear_0_1)" stroke="#BAFFE5"/>
<circle cx="98.3726" cy="83.3203" r="6.17321" transform="rotate(-36.2912 98.3726 83.3203)" fill="url(#paint17_linear_0_1)" stroke="#BAFFE5"/>
<circle cx="194.487" cy="96.4052" r="3.07416" transform="rotate(-36.2912 194.487 96.4052)" fill="url(#paint18_linear_0_1)" stroke="#BAFFE5"/>
<g filter="url(#filter4_d_0_1)">
<path d="M222.12 102.43L180.961 78.8739L180.235 34.8399L223.98 11.2998L265.746 33.4304L266.472 77.4644L222.12 102.43Z" fill="url(#paint19_linear_0_1)" shape-rendering="crispEdges"/>
<path d="M180.235 34.8399L221.379 57.5114M180.235 34.8399L180.961 78.8739L222.12 102.43M180.235 34.8399L223.98 11.2998L265.746 33.4303M221.379 57.5114L222.12 102.43M221.379 57.5114L265.746 33.4303M222.12 102.43L266.472 77.4644L265.746 33.4303" stroke="#F7B37C" stroke-width="4" shape-rendering="crispEdges"/>
</g>
<g filter="url(#filter5_d_0_1)">
<path d="M267.633 126.871L226.474 103.315L225.748 59.2811L269.493 35.741L311.259 57.8715L311.985 101.906L267.633 126.871Z" fill="url(#paint20_linear_0_1)" shape-rendering="crispEdges"/>
<path d="M225.748 59.2811L266.893 81.9525M225.748 59.2811L226.474 103.315L267.633 126.871M225.748 59.2811L269.493 35.741L311.259 57.8715M266.893 81.9525L267.633 126.871M266.893 81.9525L311.259 57.8715M267.633 126.871L311.985 101.906L311.259 57.8715" stroke="#ABEFD6" stroke-width="4" shape-rendering="crispEdges"/>
</g>
<g filter="url(#filter6_d_0_1)">
<path d="M313.732 151.302L272.573 127.747L271.847 83.7127L315.592 60.1726L357.358 82.3032L358.083 126.337L313.732 151.302Z" fill="url(#paint21_linear_0_1)" shape-rendering="crispEdges"/>
<path d="M271.847 83.7127L312.991 106.384M271.847 83.7127L272.573 127.747L313.732 151.302M271.847 83.7127L315.592 60.1726L357.358 82.3032M312.991 106.384L313.732 151.302M312.991 106.384L357.358 82.3032M313.732 151.302L358.083 126.337L357.358 82.3032" stroke="#FF688C" stroke-width="4" shape-rendering="crispEdges"/>
</g>
<g filter="url(#filter7_d_0_1)">
<path d="M359.259 176.622L318.101 153.067L317.375 109.033L361.12 85.4924L402.885 107.623L403.611 151.657L359.259 176.622Z" fill="url(#paint22_linear_0_1)" shape-rendering="crispEdges"/>
<path d="M317.375 109.033L358.519 131.704M317.375 109.033L318.101 153.067L359.259 176.622M317.375 109.033L361.12 85.4924L402.885 107.623M358.519 131.704L359.259 176.622M358.519 131.704L402.885 107.623M359.259 176.622L403.611 151.657L402.885 107.623" stroke="#FBFBFB" stroke-width="4" shape-rendering="crispEdges"/>
</g>
<defs>
<filter id="filter0_d_0_1" x="1.32648" y="66.2651" width="134.94" height="143.335" filterUnits="userSpaceOnUse" color-interpolation-filters="sRGB">
<feFlood flood-opacity="0" result="BackgroundImageFix"/>
<feColorMatrix in="SourceAlpha" type="matrix" values="0 0 0 0 0 0 0 0 0 0 0 0 0 0 0 0 0 0 127 0" result="hardAlpha"/>
<feOffset dy="4"/>
<feGaussianBlur stdDeviation="2"/>
<feComposite in2="hardAlpha" operator="out"/>
<feColorMatrix type="matrix" values="0 0 0 0 0 0 0 0 0 0 0 0 0 0 0 0 0 0 0.25 0"/>
<feBlend mode="normal" in2="BackgroundImageFix" result="effect1_dropShadow_0_1"/>
<feBlend mode="normal" in="SourceGraphic" in2="effect1_dropShadow_0_1" result="shape"/>
</filter>
<filter id="filter1_d_0_1" x="66.0035" y="102.577" width="134.94" height="143.335" filterUnits="userSpaceOnUse" color-interpolation-filters="sRGB">
<feFlood flood-opacity="0" result="BackgroundImageFix"/>
<feColorMatrix in="SourceAlpha" type="matrix" values="0 0 0 0 0 0 0 0 0 0 0 0 0 0 0 0 0 0 127 0" result="hardAlpha"/>
<feOffset dy="4"/>
<feGaussianBlur stdDeviation="2"/>
<feComposite in2="hardAlpha" operator="out"/>
<feColorMatrix type="matrix" values="0 0 0 0 0 0 0 0 0 0 0 0 0 0 0 0 0 0 0.25 0"/>
<feBlend mode="normal" in2="BackgroundImageFix" result="effect1_dropShadow_0_1"/>
<feBlend mode="normal" in="SourceGraphic" in2="effect1_dropShadow_0_1" result="shape"/>
</filter>
<filter id="filter2_d_0_1" x="131.521" y="138.891" width="134.94" height="143.335" filterUnits="userSpaceOnUse" color-interpolation-filters="sRGB">
<feFlood flood-opacity="0" result="BackgroundImageFix"/>
<feColorMatrix in="SourceAlpha" type="matrix" values="0 0 0 0 0 0 0 0 0 0 0 0 0 0 0 0 0 0 127 0" result="hardAlpha"/>
<feOffset dy="4"/>
<feGaussianBlur stdDeviation="2"/>
<feComposite in2="hardAlpha" operator="out"/>
<feColorMatrix type="matrix" values="0 0 0 0 0 0 0 0 0 0 0 0 0 0 0 0 0 0 0.25 0"/>
<feBlend mode="normal" in2="BackgroundImageFix" result="effect1_dropShadow_0_1"/>
<feBlend mode="normal" in="SourceGraphic" in2="effect1_dropShadow_0_1" result="shape"/>
</filter>
<filter id="filter3_d_0_1" x="196.196" y="176.464" width="134.94" height="143.335" filterUnits="userSpaceOnUse" color-interpolation-filters="sRGB">
<feFlood flood-opacity="0" result="BackgroundImageFix"/>
<feColorMatrix in="SourceAlpha" type="matrix" values="0 0 0 0 0 0 0 0 0 0 0 0 0 0 0 0 0 0 127 0" result="hardAlpha"/>
<feOffset dy="4"/>
<feGaussianBlur stdDeviation="2"/>
<feComposite in2="hardAlpha" operator="out"/>
<feColorMatrix type="matrix" values="0 0 0 0 0 0 0 0 0 0 0 0 0 0 0 0 0 0 0.25 0"/>
<feBlend mode="normal" in2="BackgroundImageFix" result="effect1_dropShadow_0_1"/>
<feBlend mode="normal" in="SourceGraphic" in2="effect1_dropShadow_0_1" result="shape"/>
</filter>
<filter id="filter4_d_0_1" x="174.216" y="9.03247" width="98.2754" height="103.697" filterUnits="userSpaceOnUse" color-interpolation-filters="sRGB">
<feFlood flood-opacity="0" result="BackgroundImageFix"/>
<feColorMatrix in="SourceAlpha" type="matrix" values="0 0 0 0 0 0 0 0 0 0 0 0 0 0 0 0 0 0 127 0" result="hardAlpha"/>
<feOffset dy="4"/>
<feGaussianBlur stdDeviation="2"/>
<feComposite in2="hardAlpha" operator="out"/>
<feColorMatrix type="matrix" values="0 0 0 0 0 0 0 0 0 0 0 0 0 0 0 0 0 0 0.25 0"/>
<feBlend mode="normal" in2="BackgroundImageFix" result="effect1_dropShadow_0_1"/>
<feBlend mode="normal" in="SourceGraphic" in2="effect1_dropShadow_0_1" result="shape"/>
</filter>
<filter id="filter5_d_0_1" x="219.729" y="33.4736" width="98.2754" height="103.697" filterUnits="userSpaceOnUse" color-interpolation-filters="sRGB">
<feFlood flood-opacity="0" result="BackgroundImageFix"/>
<feColorMatrix in="SourceAlpha" type="matrix" values="0 0 0 0 0 0 0 0 0 0 0 0 0 0 0 0 0 0 127 0" result="hardAlpha"/>
<feOffset dy="4"/>
<feGaussianBlur stdDeviation="2"/>
<feComposite in2="hardAlpha" operator="out"/>
<feColorMatrix type="matrix" values="0 0 0 0 0 0 0 0 0 0 0 0 0 0 0 0 0 0 0.25 0"/>
<feBlend mode="normal" in2="BackgroundImageFix" result="effect1_dropShadow_0_1"/>
<feBlend mode="normal" in="SourceGraphic" in2="effect1_dropShadow_0_1" result="shape"/>
</filter>
<filter id="filter6_d_0_1" x="265.827" y="57.9053" width="98.2754" height="103.697" filterUnits="userSpaceOnUse" color-interpolation-filters="sRGB">
<feFlood flood-opacity="0" result="BackgroundImageFix"/>
<feColorMatrix in="SourceAlpha" type="matrix" values="0 0 0 0 0 0 0 0 0 0 0 0 0 0 0 0 0 0 127 0" result="hardAlpha"/>
<feOffset dy="4"/>
<feGaussianBlur stdDeviation="2"/>
<feComposite in2="hardAlpha" operator="out"/>
<feColorMatrix type="matrix" values="0 0 0 0 0 0 0 0 0 0 0 0 0 0 0 0 0 0 0.25 0"/>
<feBlend mode="normal" in2="BackgroundImageFix" result="effect1_dropShadow_0_1"/>
<feBlend mode="normal" in="SourceGraphic" in2="effect1_dropShadow_0_1" result="shape"/>
</filter>
<filter id="filter7_d_0_1" x="311.355" y="83.2251" width="98.2754" height="103.697" filterUnits="userSpaceOnUse" color-interpolation-filters="sRGB">
<feFlood flood-opacity="0" result="BackgroundImageFix"/>
<feColorMatrix in="SourceAlpha" type="matrix" values="0 0 0 0 0 0 0 0 0 0 0 0 0 0 0 0 0 0 127 0" result="hardAlpha"/>
<feOffset dy="4"/>
<feGaussianBlur stdDeviation="2"/>
<feComposite in2="hardAlpha" operator="out"/>
<feColorMatrix type="matrix" values="0 0 0 0 0 0 0 0 0 0 0 0 0 0 0 0 0 0 0.25 0"/>
<feBlend mode="normal" in2="BackgroundImageFix" result="effect1_dropShadow_0_1"/>
<feBlend mode="normal" in="SourceGraphic" in2="effect1_dropShadow_0_1" result="shape"/>
</filter>
<linearGradient id="paint0_linear_0_1" x1="7.65741" y1="102.715" x2="130.059" y2="104.59" gradientUnits="userSpaceOnUse">
<stop stop-color="#FFB67B"/>
<stop offset="1" stop-color="#405D8E" stop-opacity="0"/>
</linearGradient>
<linearGradient id="paint1_linear_0_1" x1="71.972" y1="138.519" x2="194.913" y2="137.202" gradientUnits="userSpaceOnUse">
<stop offset="0.0572917" stop-color="#79FFCD" stop-opacity="0.6"/>
<stop offset="1" stop-color="#405D8E" stop-opacity="0"/>
</linearGradient>
<linearGradient id="paint2_linear_0_1" x1="137.889" y1="171.931" x2="260.286" y2="175.669" gradientUnits="userSpaceOnUse">
<stop offset="0.0572917" stop-color="#FF688C"/>
<stop offset="1" stop-color="#405D8E" stop-opacity="0"/>
</linearGradient>
<linearGradient id="paint3_linear_0_1" x1="206.98" y1="213.6" x2="325.131" y2="212.272" gradientUnits="userSpaceOnUse">
<stop stop-color="white" stop-opacity="0.9"/>
<stop offset="1" stop-color="#405D8E" stop-opacity="0"/>
</linearGradient>
<linearGradient id="paint4_linear_0_1" x1="385.844" y1="282.031" x2="385.452" y2="316.968" gradientUnits="userSpaceOnUse">
<stop stop-color="#FF688C"/>
<stop offset="0.0001" stop-color="#FF688C"/>
<stop offset="1" stop-color="#FF688C" stop-opacity="0"/>
</linearGradient>
<linearGradient id="paint5_linear_0_1" x1="171.834" y1="35.464" x2="171.441" y2="70.4002" gradientUnits="userSpaceOnUse">
<stop stop-color="#F7B37C"/>
<stop offset="0.0001" stop-color="#F7B37C"/>
<stop offset="0.786458" stop-color="#FF688C" stop-opacity="0"/>
</linearGradient>
<linearGradient id="paint6_linear_0_1" x1="281.556" y1="266.614" x2="281.164" y2="301.55" gradientUnits="userSpaceOnUse">
<stop stop-color="#F7B37C"/>
<stop offset="0.0001" stop-color="#F7B37C"/>
<stop offset="0.786458" stop-color="#FF688C" stop-opacity="0"/>
</linearGradient>
<linearGradient id="paint7_linear_0_1" x1="5.93047" y1="70.1145" x2="5.68092" y2="92.3247" gradientUnits="userSpaceOnUse">
<stop stop-color="#FF688C"/>
<stop offset="0.0001" stop-color="white"/>
<stop offset="1" stop-color="#FF688C" stop-opacity="0"/>
</linearGradient>
<linearGradient id="paint8_linear_0_1" x1="325.037" y1="174.576" x2="324.787" y2="196.786" gradientUnits="userSpaceOnUse">
<stop stop-color="#FF688C"/>
<stop offset="0.0001" stop-color="white"/>
<stop offset="1" stop-color="#FF688C" stop-opacity="0"/>
</linearGradient>
<linearGradient id="paint9_linear_0_1" x1="56.0178" y1="251.542" x2="55.7682" y2="273.752" gradientUnits="userSpaceOnUse">
<stop stop-color="#FF688C"/>
<stop offset="0.0001" stop-color="white"/>
<stop offset="1" stop-color="#FF688C" stop-opacity="0"/>
</linearGradient>
<linearGradient id="paint10_linear_0_1" x1="147.885" y1="328.96" x2="147.596" y2="354.746" gradientUnits="userSpaceOnUse">
<stop stop-color="#FF688C"/>
<stop offset="0.0001" stop-color="white"/>
<stop offset="1" stop-color="#FF688C" stop-opacity="0"/>
</linearGradient>
<linearGradient id="paint11_linear_0_1" x1="198.208" y1="178.882" x2="197.816" y2="213.819" gradientUnits="userSpaceOnUse">
<stop stop-color="#FF688C"/>
<stop offset="0.0001" stop-color="white"/>
<stop offset="1" stop-color="#FF688C" stop-opacity="0"/>
</linearGradient>
<linearGradient id="paint12_linear_0_1" x1="329.921" y1="194.294" x2="329.613" y2="221.736" gradientUnits="userSpaceOnUse">
<stop stop-color="#FF688C"/>
<stop offset="0.0001" stop-color="#FF688C"/>
<stop offset="1" stop-color="#FF688C"/>
</linearGradient>
<linearGradient id="paint13_linear_0_1" x1="382.757" y1="1.77663" x2="382.494" y2="25.1513" gradientUnits="userSpaceOnUse">
<stop stop-color="#FF688C"/>
<stop offset="0.0001" stop-color="#FF688C"/>
<stop offset="1" stop-color="#FF688C"/>
</linearGradient>
<linearGradient id="paint14_linear_0_1" x1="324.329" y1="320.655" x2="323.936" y2="355.592" gradientUnits="userSpaceOnUse">
<stop stop-color="#FF688C"/>
<stop offset="0.0001" stop-color="white"/>
<stop offset="1" stop-color="#FF688C" stop-opacity="0"/>
</linearGradient>
<linearGradient id="paint15_linear_0_1" x1="94.5456" y1="230.688" x2="94.153" y2="265.624" gradientUnits="userSpaceOnUse">
<stop stop-color="#FF688C"/>
<stop offset="0.0001" stop-color="white"/>
<stop offset="1" stop-color="#FF688C" stop-opacity="0"/>
</linearGradient>
<linearGradient id="paint16_linear_0_1" x1="389.329" y1="79.6554" x2="388.936" y2="114.592" gradientUnits="userSpaceOnUse">
<stop stop-color="#3DF3BD"/>
<stop offset="0.0001" stop-color="white"/>
<stop offset="1" stop-color="#3DF3BD"/>
</linearGradient>
<linearGradient id="paint17_linear_0_1" x1="98.3726" y1="76.6471" x2="97.9801" y2="111.583" gradientUnits="userSpaceOnUse">
<stop stop-color="#3DF3BD"/>
<stop offset="0.0001" stop-color="white"/>
<stop offset="1" stop-color="#3DF3BD"/>
</linearGradient>
<linearGradient id="paint18_linear_0_1" x1="194.487" y1="92.8311" x2="194.277" y2="111.543" gradientUnits="userSpaceOnUse">
<stop stop-color="#3DF3BD"/>
<stop offset="0.0001" stop-color="white"/>
<stop offset="1" stop-color="#3DF3BD"/>
</linearGradient>
<linearGradient id="paint19_linear_0_1" x1="180.384" y1="35.9298" x2="265.645" y2="35.6365" gradientUnits="userSpaceOnUse">
<stop stop-color="#FFB67B"/>
<stop offset="1" stop-color="#405D8E" stop-opacity="0"/>
</linearGradient>
<linearGradient id="paint20_linear_0_1" x1="225.638" y1="60.022" x2="311.233" y2="57.4989" gradientUnits="userSpaceOnUse">
<stop offset="0.0572917" stop-color="#79FFCD" stop-opacity="0.6"/>
<stop offset="1" stop-color="#405D8E" stop-opacity="0"/>
</linearGradient>
<linearGradient id="paint21_linear_0_1" x1="271.977" y1="82.4282" x2="357.259" y2="83.4321" gradientUnits="userSpaceOnUse">
<stop offset="0.0572917" stop-color="#FF688C"/>
<stop offset="1" stop-color="#405D8E" stop-opacity="0"/>
</linearGradient>
<linearGradient id="paint22_linear_0_1" x1="320.634" y1="110.542" x2="402.893" y2="108.074" gradientUnits="userSpaceOnUse">
<stop stop-color="white" stop-opacity="0.9"/>
<stop offset="1" stop-color="#405D8E" stop-opacity="0"/>
</linearGradient>
</defs>
</svg>
