<svg width="111" height="72" viewBox="0 0 111 72" fill="none" xmlns="http://www.w3.org/2000/svg">
<path fill-rule="evenodd" clip-rule="evenodd" d="M70.7779 29.7846C72.2546 31.2613 72.2546 33.6555 70.7779 35.1321L53.1321 52.778C51.6554 54.2546 49.2612 54.2546 47.7846 52.778L37.7012 42.6946C36.2246 41.218 36.2246 38.8238 37.7012 37.3471C39.1779 35.8705 41.5721 35.8705 43.0487 37.3471L50.4583 44.7567L65.4304 29.7846C66.9071 28.308 69.3012 28.308 70.7779 29.7846Z" fill="url(#paint0_linear_79_10)"/>
<path fill-rule="evenodd" clip-rule="evenodd" d="M60.1983 8.30029C52.3822 8.30029 45.6212 12.8495 42.4326 19.4616C41.5752 21.2393 39.4948 22.0586 37.6555 21.3429C35.1814 20.3802 32.4868 19.8502 29.6594 19.8502C17.4764 19.8502 7.6001 29.7264 7.6001 41.9095C7.6001 54.0925 17.4764 63.9688 29.6594 63.9688H88.388C96.6788 63.9688 103.4 57.2477 103.4 48.9569C103.4 40.6661 96.6788 33.945 88.388 33.945C87.039 33.945 85.7371 34.122 84.5017 34.452C83.2906 34.7754 81.998 34.4777 81.0505 33.657C80.1029 32.8364 79.6237 31.5995 79.7709 30.3547C79.8616 29.5874 79.9085 28.8052 79.9085 28.0105C79.9085 17.1248 71.0839 8.30029 60.1983 8.30029ZM37.2492 13.2699C42.098 5.73618 50.5615 0.737793 60.1983 0.737793C74.7209 0.737793 86.5923 12.0888 87.4244 26.4028C87.744 26.3893 88.0653 26.3825 88.388 26.3825C100.855 26.3825 110.962 36.4894 110.962 48.9569C110.962 61.4244 100.855 71.5313 88.388 71.5313H29.6594C13.2997 71.5313 0.0375977 58.2691 0.0375977 41.9095C0.0375977 25.5498 13.2997 12.2877 29.6594 12.2877C32.2794 12.2877 34.824 12.6287 37.2492 13.2699Z" fill="url(#paint1_linear_79_10)"/>
<defs>
<linearGradient id="paint0_linear_79_10" x1="4.46597e-07" y1="1" x2="111" y2="92.5" gradientUnits="userSpaceOnUse">
<stop stop-color="#FF4689"/>
<stop offset="1" stop-color="#FFC6D3" stop-opacity="0.15"/>
</linearGradient>
<linearGradient id="paint1_linear_79_10" x1="4.46597e-07" y1="1" x2="111" y2="92.5" gradientUnits="userSpaceOnUse">
<stop stop-color="#FF4689"/>
<stop offset="1" stop-color="#FFC6D3" stop-opacity="0.15"/>
</linearGradient>
</defs>
</svg>
