<svg width="317" height="244" viewBox="0 0 317 244" fill="none" xmlns="http://www.w3.org/2000/svg">
<g filter="url(#filter0_d_61_62)">
<path d="M307.199 153.815C307.199 173.077 290.631 190.668 263.49 203.472C236.388 216.258 198.911 224.18 157.489 224.18C116.067 224.18 78.5902 216.258 51.488 203.472C24.3471 190.668 7.7793 173.077 7.7793 153.815C7.7793 134.553 24.3471 116.963 51.488 104.158C78.5902 91.3722 116.067 83.4502 157.489 83.4502C198.911 83.4502 236.388 91.3722 263.49 104.158C290.631 116.963 307.199 134.553 307.199 153.815Z" stroke="#FF688C" shape-rendering="crispEdges"/>
</g>
<g filter="url(#filter1_d_61_62)">
<path d="M289.028 145.336C289.028 161.921 274.699 177.089 251.174 188.14C227.689 199.173 195.209 206.01 159.306 206.01C123.403 206.01 90.923 199.173 67.4377 188.14C43.9129 177.089 29.5839 161.921 29.5839 145.336C29.5839 128.751 43.9129 113.583 67.4377 102.532C90.923 91.4993 123.403 84.6619 159.306 84.6619C195.209 84.6619 227.689 91.4993 251.174 102.532C274.699 113.583 289.028 128.751 289.028 145.336Z" stroke="#FF688C" shape-rendering="crispEdges"/>
</g>
<circle cx="287.711" cy="153.815" r="7.37389" fill="url(#paint0_linear_61_62)" stroke="#FF7092"/>
<circle cx="308.304" cy="162.295" r="7.37389" fill="url(#paint1_linear_61_62)" stroke="white"/>
<circle cx="11.007" cy="161.944" r="7.37389" transform="rotate(-36.2912 11.007 161.944)" fill="url(#paint2_linear_61_62)" stroke="#FF7092"/>
<circle cx="32.6246" cy="156.589" r="7.37389" transform="rotate(-36.2912 32.6246 156.589)" fill="url(#paint3_linear_61_62)" stroke="white"/>
<g filter="url(#filter2_d_61_62)">
<path d="M154.367 180.082L75.1159 132.975V47.3565L160.903 3L241.38 47.3565V132.975L154.367 180.082Z" fill="url(#paint4_linear_61_62)" shape-rendering="crispEdges"/>
<path d="M75.1159 47.3565L154.367 92.7446M75.1159 47.3565V132.975L154.367 180.082M75.1159 47.3565L160.903 3L241.38 47.3565M154.367 92.7446V180.082M154.367 92.7446L241.38 47.3565M154.367 180.082L241.38 132.975V47.3565" stroke="#FF688C" stroke-width="4" shape-rendering="crispEdges"/>
</g>
<defs>
<filter id="filter0_d_61_62" x="3.2793" y="82.9502" width="308.419" height="160.73" filterUnits="userSpaceOnUse" color-interpolation-filters="sRGB">
<feFlood flood-opacity="0" result="BackgroundImageFix"/>
<feColorMatrix in="SourceAlpha" type="matrix" values="0 0 0 0 0 0 0 0 0 0 0 0 0 0 0 0 0 0 127 0" result="hardAlpha"/>
<feOffset dy="15"/>
<feGaussianBlur stdDeviation="2"/>
<feComposite in2="hardAlpha" operator="out"/>
<feColorMatrix type="matrix" values="0 0 0 0 0 0 0 0 0 0 0 0 0 0 0 0 0 0 0.25 0"/>
<feBlend mode="normal" in2="BackgroundImageFix" result="effect1_dropShadow_61_62"/>
<feBlend mode="normal" in="SourceGraphic" in2="effect1_dropShadow_61_62" result="shape"/>
</filter>
<filter id="filter1_d_61_62" x="25.0839" y="84.1619" width="268.444" height="141.348" filterUnits="userSpaceOnUse" color-interpolation-filters="sRGB">
<feFlood flood-opacity="0" result="BackgroundImageFix"/>
<feColorMatrix in="SourceAlpha" type="matrix" values="0 0 0 0 0 0 0 0 0 0 0 0 0 0 0 0 0 0 127 0" result="hardAlpha"/>
<feOffset dy="15"/>
<feGaussianBlur stdDeviation="2"/>
<feComposite in2="hardAlpha" operator="out"/>
<feColorMatrix type="matrix" values="0 0 0 0 0 0 0 0 0 0 0 0 0 0 0 0 0 0 0.25 0"/>
<feBlend mode="normal" in2="BackgroundImageFix" result="effect1_dropShadow_61_62"/>
<feBlend mode="normal" in="SourceGraphic" in2="effect1_dropShadow_61_62" result="shape"/>
</filter>
<filter id="filter2_d_61_62" x="69.1159" y="0.73291" width="178.264" height="196.649" filterUnits="userSpaceOnUse" color-interpolation-filters="sRGB">
<feFlood flood-opacity="0" result="BackgroundImageFix"/>
<feColorMatrix in="SourceAlpha" type="matrix" values="0 0 0 0 0 0 0 0 0 0 0 0 0 0 0 0 0 0 127 0" result="hardAlpha"/>
<feOffset dy="11"/>
<feGaussianBlur stdDeviation="2"/>
<feComposite in2="hardAlpha" operator="out"/>
<feColorMatrix type="matrix" values="0 0 0 0 0 0 0 0 0 0 0 0 0 0 0 0 0 0 0.25 0"/>
<feBlend mode="normal" in2="BackgroundImageFix" result="effect1_dropShadow_61_62"/>
<feBlend mode="normal" in="SourceGraphic" in2="effect1_dropShadow_61_62" result="shape"/>
</filter>
<linearGradient id="paint0_linear_61_62" x1="287.711" y1="145.941" x2="287.248" y2="187.164" gradientUnits="userSpaceOnUse">
<stop stop-color="#FF688C"/>
<stop offset="1" stop-color="#FF688C" stop-opacity="0"/>
</linearGradient>
<linearGradient id="paint1_linear_61_62" x1="308.304" y1="154.421" x2="307.841" y2="195.643" gradientUnits="userSpaceOnUse">
<stop stop-color="#FF688C"/>
<stop offset="0.0001" stop-color="white"/>
<stop offset="1" stop-color="#FF688C" stop-opacity="0"/>
</linearGradient>
<linearGradient id="paint2_linear_61_62" x1="11.007" y1="154.07" x2="10.5438" y2="195.292" gradientUnits="userSpaceOnUse">
<stop stop-color="#FF688C"/>
<stop offset="1" stop-color="#FF688C" stop-opacity="0"/>
</linearGradient>
<linearGradient id="paint3_linear_61_62" x1="32.6246" y1="148.715" x2="32.1614" y2="189.938" gradientUnits="userSpaceOnUse">
<stop stop-color="#FF688C"/>
<stop offset="0.0001" stop-color="white"/>
<stop offset="1" stop-color="#FF688C" stop-opacity="0"/>
</linearGradient>
<linearGradient id="paint4_linear_61_62" x1="75.409" y1="44.8638" x2="241.073" y2="49.6377" gradientUnits="userSpaceOnUse">
<stop offset="0.0572917" stop-color="#FF688C"/>
<stop offset="1" stop-color="#405D8E" stop-opacity="0"/>
</linearGradient>
</defs>
</svg>
