<svg width="960" height="417" viewBox="0 0 960 417" fill="none" xmlns="http://www.w3.org/2000/svg">
<g filter="url(#filter0_d_72_244)">
<rect x="2" y="2" width="177.337" height="180" rx="12" fill="url(#paint0_linear_72_244)" stroke="#FBFBFB" stroke-width="3"/>
</g>
<path fill-rule="evenodd" clip-rule="evenodd" d="M130.831 73.9009C130.831 73.9009 139.516 82.5542 138.098 89.0573C136.268 97.4483 123.87 102.133 117.913 103.951H68.0154C60.1567 102.326 46.9153 97.3434 46.9153 89.0573C46.9153 82.1871 55.5276 73.9009 55.5276 73.9009C54.7919 72.1878 53.9666 68.0801 56.5503 65.3549C59.1339 62.6297 63.4042 64.2194 65.2164 65.3549C69.9107 61.9782 75.8973 58.6881 82.2256 57.8006C82.2256 57.8006 92.8294 54.8638 105.371 57.8006C111.075 59.1362 116.856 62.5869 121.465 65.9527C123.008 64.7228 126.869 62.8814 129.97 65.3549C133.07 67.8284 131.836 72.0829 130.831 73.9009ZM78.9421 87.4839C78.9421 90.8148 76.1708 93.515 72.7521 93.515C69.3334 93.515 66.562 90.8148 66.562 87.4839C66.562 84.1531 69.3334 81.4529 72.7521 81.4529C76.1708 81.4529 78.9421 84.1531 78.9421 87.4839ZM113.553 93.515C116.971 93.515 119.743 90.8148 119.743 87.4839C119.743 84.1531 116.971 81.4529 113.553 81.4529C110.134 81.4529 107.363 84.1531 107.363 87.4839C107.363 90.8148 110.134 93.515 113.553 93.515Z" fill="#EEF1F5"/>
<path fill-rule="evenodd" clip-rule="evenodd" d="M67.3694 112.237C66.1344 111.54 64.7004 111.142 63.171 111.142C58.5334 111.142 54.774 114.805 54.774 119.323C54.774 123.842 58.5334 127.505 63.171 127.505C64.7004 127.505 66.1344 127.106 67.3694 126.41V112.237Z" fill="#EEF1F5"/>
<path fill-rule="evenodd" clip-rule="evenodd" d="M118.182 126.41C119.417 127.106 120.851 127.505 122.38 127.505C127.018 127.505 130.777 123.842 130.777 119.323C130.777 114.805 127.018 111.142 122.38 111.142C120.851 111.142 119.417 111.541 118.182 112.237V126.41Z" fill="#EEF1F5"/>
<g filter="url(#filter1_d_72_244)">
<rect x="265" y="2" width="177.337" height="180" rx="12" fill="url(#paint1_linear_72_244)" stroke="#FBFBFB" stroke-width="3"/>
</g>
<path fill-rule="evenodd" clip-rule="evenodd" d="M393.831 73.9009C393.831 73.9009 402.516 82.5542 401.098 89.0573C399.268 97.4483 386.87 102.133 380.913 103.951H331.015C323.157 102.326 309.915 97.3434 309.915 89.0573C309.915 82.1871 318.528 73.9009 318.528 73.9009C317.792 72.1878 316.967 68.0801 319.55 65.3549C322.134 62.6297 326.404 64.2194 328.216 65.3549C332.911 61.9782 338.897 58.6881 345.226 57.8006C345.226 57.8006 355.829 54.8638 368.371 57.8006C374.075 59.1362 379.856 62.5869 384.465 65.9527C386.008 64.7228 389.869 62.8814 392.97 65.3549C396.07 67.8284 394.836 72.0829 393.831 73.9009ZM341.942 87.4839C341.942 90.8148 339.171 93.515 335.752 93.515C332.333 93.515 329.562 90.8148 329.562 87.4839C329.562 84.1531 332.333 81.4529 335.752 81.4529C339.171 81.4529 341.942 84.1531 341.942 87.4839ZM376.553 93.515C379.971 93.515 382.743 90.8148 382.743 87.4839C382.743 84.1531 379.971 81.4529 376.553 81.4529C373.134 81.4529 370.363 84.1531 370.363 87.4839C370.363 90.8148 373.134 93.515 376.553 93.515Z" fill="#EEF1F5"/>
<path fill-rule="evenodd" clip-rule="evenodd" d="M330.369 112.237C329.134 111.54 327.7 111.142 326.171 111.142C321.533 111.142 317.774 114.805 317.774 119.323C317.774 123.842 321.533 127.505 326.171 127.505C327.7 127.505 329.134 127.106 330.369 126.41V112.237Z" fill="#EEF1F5"/>
<path fill-rule="evenodd" clip-rule="evenodd" d="M381.182 126.41C382.417 127.106 383.851 127.505 385.38 127.505C390.018 127.505 393.777 123.842 393.777 119.323C393.777 114.805 390.018 111.142 385.38 111.142C383.851 111.142 382.417 111.541 381.182 112.237V126.41Z" fill="#EEF1F5"/>
<g filter="url(#filter2_d_72_244)">
<rect x="517" y="2" width="177.337" height="180" rx="12" fill="url(#paint2_linear_72_244)" stroke="#FBFBFB" stroke-width="3"/>
</g>
<path fill-rule="evenodd" clip-rule="evenodd" d="M645.831 73.9009C645.831 73.9009 654.516 82.5542 653.098 89.0573C651.268 97.4483 638.87 102.133 632.913 103.951H583.015C575.157 102.326 561.915 97.3434 561.915 89.0573C561.915 82.1871 570.528 73.9009 570.528 73.9009C569.792 72.1878 568.967 68.0801 571.55 65.3549C574.134 62.6297 578.404 64.2194 580.216 65.3549C584.911 61.9782 590.897 58.6881 597.226 57.8006C597.226 57.8006 607.829 54.8638 620.371 57.8006C626.075 59.1362 631.856 62.5869 636.465 65.9527C638.008 64.7228 641.869 62.8814 644.97 65.3549C648.07 67.8284 646.836 72.0829 645.831 73.9009ZM593.942 87.4839C593.942 90.8148 591.171 93.515 587.752 93.515C584.333 93.515 581.562 90.8148 581.562 87.4839C581.562 84.1531 584.333 81.4529 587.752 81.4529C591.171 81.4529 593.942 84.1531 593.942 87.4839ZM628.553 93.515C631.971 93.515 634.743 90.8148 634.743 87.4839C634.743 84.1531 631.971 81.4529 628.553 81.4529C625.134 81.4529 622.363 84.1531 622.363 87.4839C622.363 90.8148 625.134 93.515 628.553 93.515Z" fill="#EEF1F5"/>
<path fill-rule="evenodd" clip-rule="evenodd" d="M582.369 112.237C581.134 111.54 579.7 111.142 578.171 111.142C573.533 111.142 569.774 114.805 569.774 119.323C569.774 123.842 573.533 127.505 578.171 127.505C579.7 127.505 581.134 127.106 582.369 126.41V112.237Z" fill="#EEF1F5"/>
<path fill-rule="evenodd" clip-rule="evenodd" d="M633.182 126.41C634.417 127.106 635.851 127.505 637.38 127.505C642.018 127.505 645.777 123.842 645.777 119.323C645.777 114.805 642.018 111.142 637.38 111.142C635.851 111.142 634.417 111.541 633.182 112.237V126.41Z" fill="#EEF1F5"/>
<g filter="url(#filter3_d_72_244)">
<rect x="769" y="2" width="177.337" height="180" rx="12" fill="url(#paint3_linear_72_244)" stroke="#FBFBFB" stroke-width="3"/>
</g>
<path fill-rule="evenodd" clip-rule="evenodd" d="M897.831 73.9009C897.831 73.9009 906.516 82.5542 905.098 89.0573C903.268 97.4483 890.87 102.133 884.913 103.951H835.015C827.157 102.326 813.915 97.3434 813.915 89.0573C813.915 82.1871 822.528 73.9009 822.528 73.9009C821.792 72.1878 820.967 68.0801 823.55 65.3549C826.134 62.6297 830.404 64.2194 832.216 65.3549C836.911 61.9782 842.897 58.6881 849.226 57.8006C849.226 57.8006 859.829 54.8638 872.371 57.8006C878.075 59.1362 883.856 62.5869 888.465 65.9527C890.008 64.7228 893.869 62.8814 896.97 65.3549C900.07 67.8284 898.836 72.0829 897.831 73.9009ZM845.942 87.4839C845.942 90.8148 843.171 93.515 839.752 93.515C836.333 93.515 833.562 90.8148 833.562 87.4839C833.562 84.1531 836.333 81.4529 839.752 81.4529C843.171 81.4529 845.942 84.1531 845.942 87.4839ZM880.553 93.515C883.971 93.515 886.743 90.8148 886.743 87.4839C886.743 84.1531 883.971 81.4529 880.553 81.4529C877.134 81.4529 874.363 84.1531 874.363 87.4839C874.363 90.8148 877.134 93.515 880.553 93.515Z" fill="#EEF1F5"/>
<path fill-rule="evenodd" clip-rule="evenodd" d="M834.369 112.237C833.134 111.54 831.7 111.142 830.171 111.142C825.533 111.142 821.774 114.805 821.774 119.323C821.774 123.842 825.533 127.505 830.171 127.505C831.7 127.505 833.134 127.106 834.369 126.41V112.237Z" fill="#EEF1F5"/>
<path fill-rule="evenodd" clip-rule="evenodd" d="M885.182 126.41C886.417 127.106 887.851 127.505 889.38 127.505C894.018 127.505 897.777 123.842 897.777 119.323C897.777 114.805 894.018 111.142 889.38 111.142C887.851 111.142 886.417 111.541 885.182 112.237V126.41Z" fill="#EEF1F5"/>
<g filter="url(#filter4_d_72_244)">
<rect x="2" y="224" width="177.337" height="180" rx="12" fill="url(#paint4_linear_72_244)" stroke="#FBFBFB" stroke-width="3"/>
</g>
<path fill-rule="evenodd" clip-rule="evenodd" d="M130.831 295.901C130.831 295.901 139.516 304.554 138.098 311.057C136.268 319.448 123.87 324.133 117.913 325.951H68.0154C60.1567 324.326 46.9153 319.343 46.9153 311.057C46.9153 304.187 55.5276 295.901 55.5276 295.901C54.7919 294.188 53.9666 290.08 56.5503 287.355C59.1339 284.63 63.4042 286.219 65.2164 287.355C69.9107 283.978 75.8973 280.688 82.2256 279.801C82.2256 279.801 92.8294 276.864 105.371 279.801C111.075 281.136 116.856 284.587 121.465 287.953C123.008 286.723 126.869 284.881 129.97 287.355C133.07 289.828 131.836 294.083 130.831 295.901ZM78.9421 309.484C78.9421 312.815 76.1708 315.515 72.7521 315.515C69.3334 315.515 66.562 312.815 66.562 309.484C66.562 306.153 69.3334 303.453 72.7521 303.453C76.1708 303.453 78.9421 306.153 78.9421 309.484ZM113.553 315.515C116.971 315.515 119.743 312.815 119.743 309.484C119.743 306.153 116.971 303.453 113.553 303.453C110.134 303.453 107.363 306.153 107.363 309.484C107.363 312.815 110.134 315.515 113.553 315.515Z" fill="#EEF1F5"/>
<path fill-rule="evenodd" clip-rule="evenodd" d="M67.3694 334.237C66.1344 333.54 64.7004 333.142 63.171 333.142C58.5334 333.142 54.774 336.805 54.774 341.323C54.774 345.842 58.5334 349.505 63.171 349.505C64.7004 349.505 66.1344 349.106 67.3694 348.41V334.237Z" fill="#EEF1F5"/>
<path fill-rule="evenodd" clip-rule="evenodd" d="M118.182 348.41C119.417 349.106 120.851 349.505 122.38 349.505C127.018 349.505 130.777 345.842 130.777 341.323C130.777 336.805 127.018 333.142 122.38 333.142C120.851 333.142 119.417 333.541 118.182 334.237V348.41Z" fill="#EEF1F5"/>
<g filter="url(#filter5_d_72_244)">
<rect x="265" y="224" width="177.337" height="180" rx="12" fill="url(#paint5_linear_72_244)" stroke="#FBFBFB" stroke-width="3"/>
</g>
<path fill-rule="evenodd" clip-rule="evenodd" d="M393.831 295.901C393.831 295.901 402.516 304.554 401.098 311.057C399.268 319.448 386.87 324.133 380.913 325.951H331.015C323.157 324.326 309.915 319.343 309.915 311.057C309.915 304.187 318.528 295.901 318.528 295.901C317.792 294.188 316.967 290.08 319.55 287.355C322.134 284.63 326.404 286.219 328.216 287.355C332.911 283.978 338.897 280.688 345.226 279.801C345.226 279.801 355.829 276.864 368.371 279.801C374.075 281.136 379.856 284.587 384.465 287.953C386.008 286.723 389.869 284.881 392.97 287.355C396.07 289.828 394.836 294.083 393.831 295.901ZM341.942 309.484C341.942 312.815 339.171 315.515 335.752 315.515C332.333 315.515 329.562 312.815 329.562 309.484C329.562 306.153 332.333 303.453 335.752 303.453C339.171 303.453 341.942 306.153 341.942 309.484ZM376.553 315.515C379.971 315.515 382.743 312.815 382.743 309.484C382.743 306.153 379.971 303.453 376.553 303.453C373.134 303.453 370.363 306.153 370.363 309.484C370.363 312.815 373.134 315.515 376.553 315.515Z" fill="#EEF1F5"/>
<path fill-rule="evenodd" clip-rule="evenodd" d="M330.369 334.237C329.134 333.54 327.7 333.142 326.171 333.142C321.533 333.142 317.774 336.805 317.774 341.323C317.774 345.842 321.533 349.505 326.171 349.505C327.7 349.505 329.134 349.106 330.369 348.41V334.237Z" fill="#EEF1F5"/>
<path fill-rule="evenodd" clip-rule="evenodd" d="M381.182 348.41C382.417 349.106 383.851 349.505 385.38 349.505C390.018 349.505 393.777 345.842 393.777 341.323C393.777 336.805 390.018 333.142 385.38 333.142C383.851 333.142 382.417 333.541 381.182 334.237V348.41Z" fill="#EEF1F5"/>
<g filter="url(#filter6_d_72_244)">
<rect x="517" y="224" width="177.337" height="180" rx="12" fill="url(#paint6_linear_72_244)" stroke="#FBFBFB" stroke-width="3"/>
</g>
<path fill-rule="evenodd" clip-rule="evenodd" d="M645.831 295.901C645.831 295.901 654.516 304.554 653.098 311.057C651.268 319.448 638.87 324.133 632.913 325.951H583.015C575.157 324.326 561.915 319.343 561.915 311.057C561.915 304.187 570.528 295.901 570.528 295.901C569.792 294.188 568.967 290.08 571.55 287.355C574.134 284.63 578.404 286.219 580.216 287.355C584.911 283.978 590.897 280.688 597.226 279.801C597.226 279.801 607.829 276.864 620.371 279.801C626.075 281.136 631.856 284.587 636.465 287.953C638.008 286.723 641.869 284.881 644.97 287.355C648.07 289.828 646.836 294.083 645.831 295.901ZM593.942 309.484C593.942 312.815 591.171 315.515 587.752 315.515C584.333 315.515 581.562 312.815 581.562 309.484C581.562 306.153 584.333 303.453 587.752 303.453C591.171 303.453 593.942 306.153 593.942 309.484ZM628.553 315.515C631.971 315.515 634.743 312.815 634.743 309.484C634.743 306.153 631.971 303.453 628.553 303.453C625.134 303.453 622.363 306.153 622.363 309.484C622.363 312.815 625.134 315.515 628.553 315.515Z" fill="#EEF1F5"/>
<path fill-rule="evenodd" clip-rule="evenodd" d="M582.369 334.237C581.134 333.54 579.7 333.142 578.171 333.142C573.533 333.142 569.774 336.805 569.774 341.323C569.774 345.842 573.533 349.505 578.171 349.505C579.7 349.505 581.134 349.106 582.369 348.41V334.237Z" fill="#EEF1F5"/>
<path fill-rule="evenodd" clip-rule="evenodd" d="M633.182 348.41C634.417 349.106 635.851 349.505 637.38 349.505C642.018 349.505 645.777 345.842 645.777 341.323C645.777 336.805 642.018 333.142 637.38 333.142C635.851 333.142 634.417 333.541 633.182 334.237V348.41Z" fill="#EEF1F5"/>
<g filter="url(#filter7_d_72_244)">
<rect x="769" y="224" width="177.337" height="180" rx="12" fill="url(#paint7_linear_72_244)" stroke="#FBFBFB" stroke-width="3"/>
</g>
<path fill-rule="evenodd" clip-rule="evenodd" d="M897.831 295.901C897.831 295.901 906.516 304.554 905.098 311.057C903.268 319.448 890.87 324.133 884.913 325.951H835.015C827.157 324.326 813.915 319.343 813.915 311.057C813.915 304.187 822.528 295.901 822.528 295.901C821.792 294.188 820.967 290.08 823.55 287.355C826.134 284.63 830.404 286.219 832.216 287.355C836.911 283.978 842.897 280.688 849.226 279.801C849.226 279.801 859.829 276.864 872.371 279.801C878.075 281.136 883.856 284.587 888.465 287.953C890.008 286.723 893.869 284.881 896.97 287.355C900.07 289.828 898.836 294.083 897.831 295.901ZM845.942 309.484C845.942 312.815 843.171 315.515 839.752 315.515C836.333 315.515 833.562 312.815 833.562 309.484C833.562 306.153 836.333 303.453 839.752 303.453C843.171 303.453 845.942 306.153 845.942 309.484ZM880.553 315.515C883.971 315.515 886.743 312.815 886.743 309.484C886.743 306.153 883.971 303.453 880.553 303.453C877.134 303.453 874.363 306.153 874.363 309.484C874.363 312.815 877.134 315.515 880.553 315.515Z" fill="#EEF1F5"/>
<path fill-rule="evenodd" clip-rule="evenodd" d="M834.369 334.237C833.134 333.54 831.7 333.142 830.171 333.142C825.533 333.142 821.774 336.805 821.774 341.323C821.774 345.842 825.533 349.505 830.171 349.505C831.7 349.505 833.134 349.106 834.369 348.41V334.237Z" fill="#EEF1F5"/>
<path fill-rule="evenodd" clip-rule="evenodd" d="M885.182 348.41C886.417 349.106 887.851 349.505 889.38 349.505C894.018 349.505 897.777 345.842 897.777 341.323C897.777 336.805 894.018 333.142 889.38 333.142C887.851 333.142 886.417 333.541 885.182 334.237V348.41Z" fill="#EEF1F5"/>
<defs>
<filter id="filter0_d_72_244" x="0.5" y="0.5" width="192.337" height="194" filterUnits="userSpaceOnUse" color-interpolation-filters="sRGB">
<feFlood flood-opacity="0" result="BackgroundImageFix"/>
<feColorMatrix in="SourceAlpha" type="matrix" values="0 0 0 0 0 0 0 0 0 0 0 0 0 0 0 0 0 0 127 0" result="hardAlpha"/>
<feOffset dx="8" dy="7"/>
<feGaussianBlur stdDeviation="2"/>
<feComposite in2="hardAlpha" operator="out"/>
<feColorMatrix type="matrix" values="0 0 0 0 0 0 0 0 0 0 0 0 0 0 0 0 0 0 0.2 0"/>
<feBlend mode="normal" in2="BackgroundImageFix" result="effect1_dropShadow_72_244"/>
<feBlend mode="normal" in="SourceGraphic" in2="effect1_dropShadow_72_244" result="shape"/>
</filter>
<filter id="filter1_d_72_244" x="263.5" y="0.5" width="192.337" height="194" filterUnits="userSpaceOnUse" color-interpolation-filters="sRGB">
<feFlood flood-opacity="0" result="BackgroundImageFix"/>
<feColorMatrix in="SourceAlpha" type="matrix" values="0 0 0 0 0 0 0 0 0 0 0 0 0 0 0 0 0 0 127 0" result="hardAlpha"/>
<feOffset dx="8" dy="7"/>
<feGaussianBlur stdDeviation="2"/>
<feComposite in2="hardAlpha" operator="out"/>
<feColorMatrix type="matrix" values="0 0 0 0 0 0 0 0 0 0 0 0 0 0 0 0 0 0 0.2 0"/>
<feBlend mode="normal" in2="BackgroundImageFix" result="effect1_dropShadow_72_244"/>
<feBlend mode="normal" in="SourceGraphic" in2="effect1_dropShadow_72_244" result="shape"/>
</filter>
<filter id="filter2_d_72_244" x="515.5" y="0.5" width="192.337" height="194" filterUnits="userSpaceOnUse" color-interpolation-filters="sRGB">
<feFlood flood-opacity="0" result="BackgroundImageFix"/>
<feColorMatrix in="SourceAlpha" type="matrix" values="0 0 0 0 0 0 0 0 0 0 0 0 0 0 0 0 0 0 127 0" result="hardAlpha"/>
<feOffset dx="8" dy="7"/>
<feGaussianBlur stdDeviation="2"/>
<feComposite in2="hardAlpha" operator="out"/>
<feColorMatrix type="matrix" values="0 0 0 0 0 0 0 0 0 0 0 0 0 0 0 0 0 0 0.2 0"/>
<feBlend mode="normal" in2="BackgroundImageFix" result="effect1_dropShadow_72_244"/>
<feBlend mode="normal" in="SourceGraphic" in2="effect1_dropShadow_72_244" result="shape"/>
</filter>
<filter id="filter3_d_72_244" x="767.5" y="0.5" width="192.337" height="194" filterUnits="userSpaceOnUse" color-interpolation-filters="sRGB">
<feFlood flood-opacity="0" result="BackgroundImageFix"/>
<feColorMatrix in="SourceAlpha" type="matrix" values="0 0 0 0 0 0 0 0 0 0 0 0 0 0 0 0 0 0 127 0" result="hardAlpha"/>
<feOffset dx="8" dy="7"/>
<feGaussianBlur stdDeviation="2"/>
<feComposite in2="hardAlpha" operator="out"/>
<feColorMatrix type="matrix" values="0 0 0 0 0 0 0 0 0 0 0 0 0 0 0 0 0 0 0.2 0"/>
<feBlend mode="normal" in2="BackgroundImageFix" result="effect1_dropShadow_72_244"/>
<feBlend mode="normal" in="SourceGraphic" in2="effect1_dropShadow_72_244" result="shape"/>
</filter>
<filter id="filter4_d_72_244" x="0.5" y="222.5" width="192.337" height="194" filterUnits="userSpaceOnUse" color-interpolation-filters="sRGB">
<feFlood flood-opacity="0" result="BackgroundImageFix"/>
<feColorMatrix in="SourceAlpha" type="matrix" values="0 0 0 0 0 0 0 0 0 0 0 0 0 0 0 0 0 0 127 0" result="hardAlpha"/>
<feOffset dx="8" dy="7"/>
<feGaussianBlur stdDeviation="2"/>
<feComposite in2="hardAlpha" operator="out"/>
<feColorMatrix type="matrix" values="0 0 0 0 0 0 0 0 0 0 0 0 0 0 0 0 0 0 0.2 0"/>
<feBlend mode="normal" in2="BackgroundImageFix" result="effect1_dropShadow_72_244"/>
<feBlend mode="normal" in="SourceGraphic" in2="effect1_dropShadow_72_244" result="shape"/>
</filter>
<filter id="filter5_d_72_244" x="263.5" y="222.5" width="192.337" height="194" filterUnits="userSpaceOnUse" color-interpolation-filters="sRGB">
<feFlood flood-opacity="0" result="BackgroundImageFix"/>
<feColorMatrix in="SourceAlpha" type="matrix" values="0 0 0 0 0 0 0 0 0 0 0 0 0 0 0 0 0 0 127 0" result="hardAlpha"/>
<feOffset dx="8" dy="7"/>
<feGaussianBlur stdDeviation="2"/>
<feComposite in2="hardAlpha" operator="out"/>
<feColorMatrix type="matrix" values="0 0 0 0 0 0 0 0 0 0 0 0 0 0 0 0 0 0 0.2 0"/>
<feBlend mode="normal" in2="BackgroundImageFix" result="effect1_dropShadow_72_244"/>
<feBlend mode="normal" in="SourceGraphic" in2="effect1_dropShadow_72_244" result="shape"/>
</filter>
<filter id="filter6_d_72_244" x="515.5" y="222.5" width="192.337" height="194" filterUnits="userSpaceOnUse" color-interpolation-filters="sRGB">
<feFlood flood-opacity="0" result="BackgroundImageFix"/>
<feColorMatrix in="SourceAlpha" type="matrix" values="0 0 0 0 0 0 0 0 0 0 0 0 0 0 0 0 0 0 127 0" result="hardAlpha"/>
<feOffset dx="8" dy="7"/>
<feGaussianBlur stdDeviation="2"/>
<feComposite in2="hardAlpha" operator="out"/>
<feColorMatrix type="matrix" values="0 0 0 0 0 0 0 0 0 0 0 0 0 0 0 0 0 0 0.2 0"/>
<feBlend mode="normal" in2="BackgroundImageFix" result="effect1_dropShadow_72_244"/>
<feBlend mode="normal" in="SourceGraphic" in2="effect1_dropShadow_72_244" result="shape"/>
</filter>
<filter id="filter7_d_72_244" x="767.5" y="222.5" width="192.337" height="194" filterUnits="userSpaceOnUse" color-interpolation-filters="sRGB">
<feFlood flood-opacity="0" result="BackgroundImageFix"/>
<feColorMatrix in="SourceAlpha" type="matrix" values="0 0 0 0 0 0 0 0 0 0 0 0 0 0 0 0 0 0 127 0" result="hardAlpha"/>
<feOffset dx="8" dy="7"/>
<feGaussianBlur stdDeviation="2"/>
<feComposite in2="hardAlpha" operator="out"/>
<feColorMatrix type="matrix" values="0 0 0 0 0 0 0 0 0 0 0 0 0 0 0 0 0 0 0.2 0"/>
<feBlend mode="normal" in2="BackgroundImageFix" result="effect1_dropShadow_72_244"/>
<feBlend mode="normal" in="SourceGraphic" in2="effect1_dropShadow_72_244" result="shape"/>
</filter>
<linearGradient id="paint0_linear_72_244" x1="8.77967" y1="8.6055" x2="172.847" y2="184.615" gradientUnits="userSpaceOnUse">
<stop stop-color="white"/>
<stop offset="1" stop-color="#405D8E"/>
</linearGradient>
<linearGradient id="paint1_linear_72_244" x1="271.78" y1="8.6055" x2="435.847" y2="184.615" gradientUnits="userSpaceOnUse">
<stop stop-color="white"/>
<stop offset="1" stop-color="#405D8E"/>
</linearGradient>
<linearGradient id="paint2_linear_72_244" x1="523.78" y1="8.6055" x2="687.847" y2="184.615" gradientUnits="userSpaceOnUse">
<stop stop-color="white"/>
<stop offset="1" stop-color="#405D8E"/>
</linearGradient>
<linearGradient id="paint3_linear_72_244" x1="775.78" y1="8.6055" x2="939.847" y2="184.615" gradientUnits="userSpaceOnUse">
<stop stop-color="white"/>
<stop offset="1" stop-color="#405D8E"/>
</linearGradient>
<linearGradient id="paint4_linear_72_244" x1="8.77967" y1="230.606" x2="172.847" y2="406.615" gradientUnits="userSpaceOnUse">
<stop stop-color="white"/>
<stop offset="1" stop-color="#405D8E"/>
</linearGradient>
<linearGradient id="paint5_linear_72_244" x1="271.78" y1="230.606" x2="435.847" y2="406.615" gradientUnits="userSpaceOnUse">
<stop stop-color="white"/>
<stop offset="1" stop-color="#405D8E"/>
</linearGradient>
<linearGradient id="paint6_linear_72_244" x1="523.78" y1="230.606" x2="687.847" y2="406.615" gradientUnits="userSpaceOnUse">
<stop stop-color="white"/>
<stop offset="1" stop-color="#405D8E"/>
</linearGradient>
<linearGradient id="paint7_linear_72_244" x1="775.78" y1="230.606" x2="939.847" y2="406.615" gradientUnits="userSpaceOnUse">
<stop stop-color="white"/>
<stop offset="1" stop-color="#405D8E"/>
</linearGradient>
</defs>
</svg>
