<svg width="95" height="76" viewBox="0 0 95 76" fill="none" xmlns="http://www.w3.org/2000/svg">
<path fill-rule="evenodd" clip-rule="evenodd" d="M74.5625 28.0312C68.6774 28.0312 63.5943 32.1477 62.371 37.9043L62.2684 38.3871C61.9542 39.8658 61.8988 41.3878 62.1047 42.8854L62.8123 48.0315C62.548 48.0636 62.2837 48.0968 62.0196 48.1311C57.9509 48.6595 54.9063 52.1251 54.9063 56.228V66.8971C54.9063 70.9999 57.9509 74.4656 62.0196 74.994C70.3466 76.0754 78.7784 76.0754 87.1054 74.994C91.1741 74.4656 94.2188 70.9999 94.2188 66.8971V56.228C94.2188 52.1252 91.1741 48.6595 87.1054 48.1311C86.8413 48.0968 86.577 48.0636 86.3127 48.0315L87.0203 42.8854C87.2262 41.3878 87.1708 39.8658 86.8566 38.3871L86.754 37.9043C85.5307 32.1477 80.4476 28.0312 74.5625 28.0312ZM79.3912 47.4398L80.1474 41.9404C80.2441 41.2375 80.2181 40.5232 80.0706 39.8292L79.968 39.3463C79.4256 36.7939 77.1718 34.9688 74.5625 34.9688C71.9531 34.9688 69.6993 36.7939 69.157 39.3463L69.0544 39.8292C68.9069 40.5232 68.8809 41.2375 68.9775 41.9404L69.7337 47.4398C72.9509 47.2801 76.174 47.2801 79.3912 47.4398ZM62.9131 55.0108C70.6469 54.0064 78.4781 54.0064 86.2119 55.0108C86.8236 55.0903 87.2812 55.6112 87.2812 56.228V66.8971C87.2812 67.5138 86.8236 68.0348 86.2119 68.1142C78.4781 69.1186 70.6469 69.1186 62.9131 68.1142C62.3014 68.0348 61.8438 67.5138 61.8438 66.8971V56.228C61.8438 55.6112 62.3014 55.0903 62.9131 55.0108Z" fill="url(#paint0_linear_79_8)"/>
<path d="M47.9688 60.9397C47.9688 60.1677 47.3386 59.5445 46.5666 59.5493C38.0407 59.6028 29.5132 59.3252 21.0034 58.7164L14.0011 58.2154C11.6263 58.0455 9.6675 56.2899 9.23956 53.9478C7.34501 43.5787 7.02067 32.9837 8.27741 22.5182L9.53766 12.0236C9.86688 9.28199 12.1927 7.21875 14.954 7.21875H25.5525C27.5877 7.21875 29.2375 8.8686 29.2375 10.9038C29.2375 13.6097 31.4311 15.8033 34.137 15.8033H74.4339C77.0665 15.8033 79.3088 17.7161 79.7238 20.3157L79.7854 20.7021C79.8983 21.4092 80.4119 21.9803 81.0862 22.2212C82.7123 22.8021 84.2438 23.5949 85.6444 24.57C86.3416 25.0554 87.363 24.5107 87.2505 23.6686C87.135 22.8042 87.0085 21.9409 86.8709 21.0789L86.5745 19.2223C85.6222 13.2559 80.4758 8.8658 74.4339 8.8658H35.9797C35.0292 3.97412 30.7221 0.28125 25.5525 0.28125H14.954C8.68116 0.28125 3.39754 4.96835 2.64964 11.1964L1.3894 21.6911C0.0497213 32.8472 0.39547 44.1414 2.41504 55.1947C3.41182 60.6501 7.97441 64.7394 13.5061 65.1352L20.5083 65.6362C29.1925 66.2575 37.8948 66.541 46.5955 66.4868C47.3562 66.482 47.9688 65.8629 47.9688 65.1021V60.9397Z" fill="url(#paint1_linear_79_8)"/>
<defs>
<linearGradient id="paint0_linear_79_8" x1="0.999996" y1="3.26639e-06" x2="87.5" y2="83.5" gradientUnits="userSpaceOnUse">
<stop stop-color="#A8FFE5"/>
<stop offset="1" stop-color="#9DDEC6" stop-opacity="0.37"/>
</linearGradient>
<linearGradient id="paint1_linear_79_8" x1="0.999996" y1="3.26639e-06" x2="87.5" y2="83.5" gradientUnits="userSpaceOnUse">
<stop stop-color="#A8FFE5"/>
<stop offset="1" stop-color="#9DDEC6" stop-opacity="0.37"/>
</linearGradient>
</defs>
</svg>
