<svg width="113" height="88" viewBox="0 0 113 88" fill="none" xmlns="http://www.w3.org/2000/svg">
<path fill-rule="evenodd" clip-rule="evenodd" d="M103.816 21.4101C103.816 21.4101 114.561 32.0543 112.806 40.0535C110.542 50.3751 95.204 56.138 87.8345 58.3743H26.1039C16.3816 56.3745 0 50.2461 0 40.0535C0 31.6027 10.6547 21.4101 10.6547 21.4101C9.74458 19.3028 8.72351 14.2501 11.9199 10.8979C15.1163 7.54565 20.3993 9.50111 22.6412 10.8979C28.4487 6.74425 35.8551 2.69726 43.6841 1.60558C43.6841 1.60558 56.8026 -2.00698 72.3186 1.60558C79.3748 3.24848 86.5275 7.49307 92.2295 11.6332C94.1384 10.1203 98.9153 7.8553 102.751 10.8979C106.587 13.9405 105.06 19.1738 103.816 21.4101ZM39.6221 38.1182C39.6221 42.2154 36.1934 45.5369 31.964 45.5369C27.7346 45.5369 24.306 42.2154 24.306 38.1182C24.306 34.021 27.7346 30.6996 31.964 30.6996C36.1934 30.6996 39.6221 34.021 39.6221 38.1182ZM82.4404 45.5369C86.6699 45.5369 90.0985 42.2154 90.0985 38.1182C90.0985 34.021 86.6699 30.6996 82.4404 30.6996C78.211 30.6996 74.7824 34.021 74.7824 38.1182C74.7824 42.2154 78.211 45.5369 82.4404 45.5369Z" fill="url(#paint0_linear_71_6)"/>
<path fill-rule="evenodd" clip-rule="evenodd" d="M25.3048 68.5657C23.7768 67.7094 22.0028 67.2194 20.1107 67.2194C14.3734 67.2194 9.72235 71.725 9.72235 77.2829C9.72235 82.8409 14.3734 87.3465 20.1107 87.3465C22.0028 87.3465 23.7768 86.8564 25.3048 86.0001V68.5657Z" fill="url(#paint1_linear_71_6)"/>
<path fill-rule="evenodd" clip-rule="evenodd" d="M88.1674 86.0001C89.6953 86.8564 91.4694 87.3464 93.3615 87.3464C99.0988 87.3464 103.75 82.8408 103.75 77.2829C103.75 71.7249 99.0988 67.2193 93.3615 67.2193C91.4694 67.2193 89.6953 67.7094 88.1674 68.5657L88.1674 86.0001Z" fill="url(#paint2_linear_71_6)"/>
<defs>
<linearGradient id="paint0_linear_71_6" x1="41.3209" y1="17.4706" x2="90.0407" y2="95.0036" gradientUnits="userSpaceOnUse">
<stop stop-color="#FBFBFB"/>
<stop offset="1" stop-color="#FBFBFB" stop-opacity="0.17"/>
</linearGradient>
<linearGradient id="paint1_linear_71_6" x1="15.4204" y1="73.2431" x2="32.3111" y2="83.9936" gradientUnits="userSpaceOnUse">
<stop stop-color="#FBFBFB"/>
<stop offset="1" stop-color="#FBFBFB" stop-opacity="0.17"/>
</linearGradient>
<linearGradient id="paint2_linear_71_6" x1="98.0518" y1="81.3227" x2="81.161" y2="70.5722" gradientUnits="userSpaceOnUse">
<stop stop-color="#FBFBFB"/>
<stop offset="1" stop-color="#FBFBFB" stop-opacity="0.17"/>
</linearGradient>
</defs>
</svg>
